<svg xmlns="http://www.w3.org/2000/svg" viewBox="0 0 48 55">
  <path d="M24 2L44 11.5V31C44 42.5 35.5 51.5 24 53.5C12.5 51.5 4 42.5 4 31V11.5L24 2Z" fill="#d4941a"/>
  <path d="M24 6L41 14.5V30.5C41 40.5 33.5 48.5 24 50.5C14.5 48.5 7 40.5 7 30.5V14.5L24 6Z" fill="none" stroke="rgba(10,10,8,0.14)" stroke-width="1"/>
  <line x1="24" y1="15" x2="16" y2="34" stroke="rgba(10,10,8,0.42)" stroke-width="1.5" stroke-linecap="round"/>
  <line x1="24" y1="15" x2="32" y2="34" stroke="rgba(10,10,8,0.42)" stroke-width="1.5" stroke-linecap="round"/>
  <line x1="16" y1="34" x2="32" y2="34" stroke="rgba(10,10,8,0.42)" stroke-width="1.5" stroke-linecap="round"/>
  <circle cx="24" cy="15" r="3.5" fill="#0a0a08"/>
  <circle cx="16" cy="34" r="3.5" fill="#0a0a08"/>
  <circle cx="32" cy="34" r="3.5" fill="#0a0a08"/>
</svg>
